{"title":"What.To.Expect.When.Your.Expecting.2012.CAM.READNFO.XviD-XTREME","uid":7349531,"size":1472580930,"categoryP":"video","categoryS":"movies","magnet":"?xt=urn:btih:0e693d0840de6f124b59555c8ded7f024b53575a&amp;dn=What.To.Expect.When.Your.Expecting.2012.CAM.READNFO.XviD-XTREME&amp;tr=udp%3A%2F%2Ftracker.openbittorrent.com%3A80&amp;tr=udp%3A%2F%2Fopen.demonii.com%3A1337&amp;tr=udp%3A%2F%2Ftracker.coppersurfer.tk%3A6969&amp;tr=udp%3A%2F%2Fexodus.desync.com%3A6969","seeders":0,"leechers":1,"uploader":"tykoon123","files":2,"time":1339545147,"description":" &lt;a href=&quot;http://img525.imageshack.us/img525/3800/reexpecting2012official.jpg&quot; rel=&quot;nofollow&quot; target=&quot;_NEW&quot;&gt;http://img525.imageshack.us/img525/3800/reexpecting2012official.jpg&lt;/a&gt;\n\n\nVideo \nID : 0 \nFormat : MPEG-4 Visual \nFormat profile : Advanced Simple@L5 \nFormat settings, BVOP: 2 \nFormat settings, QPel: No \nFormat settings, GMC : No warppoints \nFormat settings, Matrix: Default (H.263) \nMuxing mode: Packed bitstream \nCodec ID : XVID \nCodec ID/Hint: XviD \nDuration : 1h 39mn \nBit rate : 1 838 Kbps \nWidth: 720 pixels \nHeight : 368 pixels \nDisplay aspect ratio : 1.957 \nFrame rate : 30.303 fps \nColor space: YUV \nChroma subsampling : 4:2:0 \nBit depth: 8 bits \nScan type: Progressive \nCompression mode : Lossy \nBits/(Pixel*Frame) : 0.229 \nStream size: 1.27 GiB (93%) \nWriting library: XviD 1.2.1 (UTC 2008-12-04) \n\nAudio \nID : 1 \nFormat : MPEG Audio \nFormat version : Version 1 \nFormat profile : Layer 3 \nCodec ID : 55 \nCodec ID/Hint: MP3 \nDuration : 1h 39mn \nBit rate mode: Constant \nBit rate : 128 Kbps \nChannel(s) : 1 channel \nSampling rate: 48.0 KHz \nCompression mode : Lossy \nStream size: 90.9 MiB (6%) \nAlignment: Split accross interleaves \nInterleave, duration : 33 ms (1.00 video frame) \nWriting library: LAME3.98r \nEncoding settings: -m m -V 4 -q 3 -lowpass 20.5 -b 128 \n\n\nscreens: &lt;a href=&quot;\nhttp://imgh.us/what_2.jpg&quot; rel=&quot;nofollow&quot; target=&quot;_NEW&quot;&gt;\nhttp://imgh.us/what_2.jpg&lt;/a&gt;","torrent":{"xt":"urn:btih:0e693d0840de6f124b59555c8ded7f024b53575a","amp;dn":"What.To.Expect.When.Your.Expecting.2012.CAM.READNFO.XviD-XTREME","amp;tr":["udp%3A%2F%2Ftracker.openbittorrent.com%3A80","udp%3A%2F%2Fopen.demonii.com%3A1337","udp%3A%2F%2Ftracker.coppersurfer.tk%3A6969","udp%3A%2F%2Fexodus.desync.com%3A6969"],"infoHash":"0e693d0840de6f124b59555c8ded7f024b53575a","infoHashBuffer":{"type":"Buffer","data":[14,105,61,8,64,222,111,18,75,89,85,92,141,237,127,2,75,83,87,90]},"announce":[],"urlList":[]}}